# xmcd CD database file
#
# Track frame offsets:
#	150
#	7975
#	24695
#	39105
#	54390
#	74872
#	93077
#	108622
#	121905
#	136255
#	150872
#	168245
#	192887
#	209062
#	227065
#	246470
#	263862
#	271270
#
# Disc length: 3845 seconds
#
# Revision: 8
# Processed by: cddbd v1.5PL3 Copyright (c) Steve Scherf et al.
# Submitted via: CDex 1.50beta8
#
DISCID=f40f0312
DTITLE=ﾅﾚｰｼｮﾝ　永井みゆき - 歌うヘッドライト~コックピットのあなたへ~雨の慕情?
DYEAR=1900
DGENRE=JPop
TTITLE0=オープニング（BGM「赤い砂漠」）（永井みゆき）
TTITLE1=夜霧よ今夜も有難う(石原裕次郎)
TTITLE2=すきま風(杉良太郎)
TTITLE3=あなただけを(あおい輝彦)
TTITLE4=恋あざみ(勝彩也)
TTITLE5=あなたのブルース(矢吹健)
TTITLE6=バス・ストップ(平浩二)
TTITLE7=そして神戸(前川清)
TTITLE8=なみだ恋(八代亜紀)
TTITLE9=雨のバラード(湯原昌幸)
TTITLE10=そんな女のひとりごと(増位山太志郎)
TTITLE11=演歌チャンチャカチャン(平野雅昭)
TTITLE12=怨み節(梶芽衣子)
TTITLE13=ふりむかないで(ハニー・ナイツ)
TTITLE14=君は心の妻だから(鶴岡雅義と東京ロマンチカ)
TTITLE15=わたし祈ってます(敏いとうとハッピー&ブルー)
TTITLE16=エンディング（BGM「夜明けの仲間たち」）（永井みゆき）
TTITLE17=夜明けの仲間たち(麻生詩織)
EXTD=
EXTT0=
EXTT1=
EXTT2=
EXTT3=
EXTT4=
EXTT5=
EXTT6=
EXTT7=
EXTT8=
EXTT9=
EXTT10=
EXTT11=
EXTT12=
EXTT13=
EXTT14=
EXTT15=
EXTT16=
EXTT17=
PLAYORDER=
